<svg width="46" height="46" viewBox="0 0 46 46" fill="none" xmlns="http://www.w3.org/2000/svg">
<rect width="46" height="46" rx="13" fill="#0328EE"/>
<g clip-path="url(#clip0_0_17976)">
<path opacity="0.4" d="M23.211 41.4324C21.8105 41.4324 20.4118 40.9006 19.3427 39.8389L18.0132 38.5094C17.4978 37.9958 16.8075 37.7116 16.0754 37.7098H14.205C11.1817 37.7098 8.72126 35.2493 8.72126 32.2261V30.3539C8.71944 29.6235 8.43532 28.9333 7.91991 28.4142L6.61227 27.1084C4.47049 24.9794 4.46139 21.499 6.59223 19.3554L7.92174 18.0241C8.43532 17.5087 8.71944 16.8184 8.72126 16.0863V14.2178C8.72126 11.1927 11.1817 8.7322 14.205 8.7322H16.0772C16.8075 8.7322 17.496 8.44808 18.015 7.92903L19.3245 6.62321C21.4535 4.48143 24.9321 4.47051 27.0775 6.60317L28.407 7.93268C28.9242 8.44808 29.6126 8.7322 30.343 8.7322H32.2152C35.2384 8.7322 37.6989 11.1927 37.6989 14.2178V16.0881C37.7008 16.8184 37.9849 17.5087 38.5003 18.0277L39.8079 19.3354C40.8442 20.3662 41.4179 21.7394 41.4234 23.2055C41.427 24.6625 40.8661 26.0339 39.8443 27.0702C39.8261 27.0884 39.8097 27.1084 39.7915 27.1248L38.4985 28.4179C37.9849 28.9333 37.7008 29.6235 37.6989 30.3557V32.2261C37.6989 35.2493 35.2384 37.7098 32.2152 37.7098H30.343C29.6126 37.7116 28.9224 37.9958 28.4052 38.5112L27.0957 39.8188C26.0285 40.8933 24.6188 41.4324 23.211 41.4324Z" fill="white"/>
<path d="M13.9365 28.4299C13.8777 28.4299 13.8287 28.4299 13.7896 28.4299C13.7602 28.4397 13.721 28.4446 13.672 28.4446C13.4369 28.4446 13.2508 28.3859 13.1137 28.2683C12.9863 28.1606 12.9227 28.0234 12.9227 27.8569C12.9227 27.6708 13.0304 27.4847 13.2459 27.2986C13.863 27.0145 14.392 26.657 14.8328 26.226C15.2736 25.795 15.6213 25.2759 15.876 24.6685C15.6605 24.7469 15.445 24.8057 15.2295 24.8449C15.014 24.8742 14.7936 24.8889 14.5683 24.8889C14.0491 24.8889 13.5986 24.8057 13.2165 24.6392C12.8443 24.4726 12.5309 24.262 12.2762 24.0074C12.0215 23.7429 11.8305 23.449 11.7032 23.1258C11.5856 22.8025 11.5269 22.4842 11.5269 22.1707C11.5269 21.8083 11.6003 21.4459 11.7472 21.0835C11.8942 20.7112 12.1048 20.3831 12.379 20.099C12.6631 19.8052 13.0108 19.5701 13.4222 19.3938C13.8434 19.2077 14.3283 19.1146 14.8768 19.1146C15.3862 19.1146 15.827 19.2126 16.1992 19.4085C16.5714 19.6044 16.8751 19.864 17.1102 20.1872C17.3453 20.5006 17.5167 20.8631 17.6244 21.2745C17.7322 21.6859 17.7763 22.1071 17.7567 22.5381C17.7567 23.1748 17.6685 23.787 17.4922 24.3747C17.3257 24.9526 17.0759 25.4963 16.7429 26.0056C16.4196 26.5052 16.018 26.9606 15.538 27.3721C15.0679 27.7835 14.534 28.1361 13.9365 28.4299ZM14.5536 23.6107C14.8573 23.6107 15.1609 23.547 15.4646 23.4196C15.778 23.2923 16.0621 23.1307 16.3168 22.9348C16.2972 22.9348 16.2923 22.8907 16.3021 22.8025C16.3217 22.7046 16.3314 22.6115 16.3314 22.5234C16.3314 22.2491 16.307 21.9846 16.258 21.73C16.209 21.4655 16.1257 21.2353 16.0082 21.0394C15.8907 20.8337 15.7339 20.6721 15.538 20.5545C15.3421 20.4272 15.0972 20.3635 14.8034 20.3635C14.5585 20.3635 14.3234 20.4125 14.0981 20.5104C13.8826 20.5986 13.6867 20.7259 13.5104 20.8925C13.3439 21.0492 13.2116 21.2402 13.1137 21.4655C13.0157 21.6908 12.9668 21.9308 12.9668 22.1854C12.9668 22.4107 13.0108 22.6115 13.099 22.7879C13.1969 22.9544 13.3194 23.1013 13.4663 23.2286C13.6132 23.356 13.7798 23.4539 13.9659 23.5225C14.1618 23.5813 14.3577 23.6107 14.5536 23.6107Z" fill="white"/>
<path d="M21.0453 28.4299C20.9866 28.4299 20.9376 28.4299 20.8984 28.4299C20.869 28.4397 20.8298 28.4446 20.7809 28.4446C20.5458 28.4446 20.3597 28.3859 20.2225 28.2683C20.0952 28.1606 20.0315 28.0234 20.0315 27.8569C20.0315 27.6708 20.1393 27.4847 20.3548 27.2986C20.9719 27.0145 21.5008 26.657 21.9416 26.226C22.3824 25.795 22.7301 25.2759 22.9848 24.6685C22.7693 24.7469 22.5538 24.8057 22.3383 24.8449C22.1228 24.8742 21.9024 24.8889 21.6771 24.8889C21.158 24.8889 20.7074 24.8057 20.3254 24.6392C19.9532 24.4726 19.6397 24.262 19.385 24.0074C19.1304 23.7429 18.9393 23.449 18.812 23.1258C18.6945 22.8025 18.6357 22.4842 18.6357 22.1707C18.6357 21.8083 18.7092 21.4459 18.8561 21.0835C19.003 20.7112 19.2136 20.3831 19.4879 20.099C19.7719 19.8052 20.1197 19.5701 20.5311 19.3938C20.9523 19.2077 21.4371 19.1146 21.9857 19.1146C22.495 19.1146 22.9358 19.2126 23.3081 19.4085C23.6803 19.6044 23.9839 19.864 24.219 20.1872C24.4541 20.5006 24.6255 20.8631 24.7333 21.2745C24.841 21.6859 24.8851 22.1071 24.8655 22.5381C24.8655 23.1748 24.7773 23.787 24.601 24.3747C24.4345 24.9526 24.1847 25.4963 23.8517 26.0056C23.5284 26.5052 23.1268 26.9606 22.6469 27.3721C22.1767 27.7835 21.6429 28.1361 21.0453 28.4299ZM21.6624 23.6107C21.9661 23.6107 22.2697 23.547 22.5734 23.4196C22.8869 23.2923 23.1709 23.1307 23.4256 22.9348C23.406 22.9348 23.4011 22.8907 23.4109 22.8025C23.4305 22.7046 23.4403 22.6115 23.4403 22.5234C23.4403 22.2491 23.4158 21.9846 23.3668 21.73C23.3178 21.4655 23.2346 21.2353 23.117 21.0394C22.9995 20.8337 22.8428 20.6721 22.6469 20.5545C22.451 20.4272 22.2061 20.3635 21.9122 20.3635C21.6673 20.3635 21.4323 20.4125 21.207 20.5104C20.9915 20.5986 20.7956 20.7259 20.6192 20.8925C20.4527 21.0492 20.3205 21.2402 20.2225 21.4655C20.1246 21.6908 20.0756 21.9308 20.0756 22.1854C20.0756 22.4107 20.1197 22.6115 20.2078 22.7879C20.3058 22.9544 20.4282 23.1013 20.5752 23.2286C20.7221 23.356 20.8886 23.4539 21.0747 23.5225C21.2706 23.5813 21.4665 23.6107 21.6624 23.6107Z" fill="white"/>
<path d="M32.8393 18.1449C32.9862 18.0077 33.1723 17.9392 33.3976 17.9392C33.5837 17.9392 33.7405 17.9979 33.8678 18.1155C34.0049 18.233 34.0735 18.38 34.0735 18.5563C34.0735 18.6053 34.0686 18.6542 34.0588 18.7032C34.049 18.7424 34.0343 18.7865 34.0147 18.8354L30.8557 23.3756L27.4764 28.2095C27.3882 28.3271 27.2854 28.4055 27.1678 28.4446C27.0503 28.4838 26.9425 28.5034 26.8446 28.5034C26.6585 28.5034 26.4968 28.4495 26.3597 28.3418C26.2324 28.234 26.1687 28.0871 26.1687 27.901C26.1687 27.8324 26.1785 27.7639 26.1981 27.6953C26.2177 27.6169 26.252 27.5386 26.3009 27.4602C26.8887 26.6374 27.447 25.844 27.9759 25.0799C28.5049 24.3159 29.0338 23.5568 29.5628 22.8025C30.0819 22.0581 30.6109 21.3039 31.1496 20.5398C31.6883 19.7758 32.2467 18.9824 32.8246 18.1596L32.8393 18.1449ZM25.4487 20.2901C25.4683 19.9276 25.5467 19.6142 25.6838 19.3497C25.821 19.0852 25.9924 18.8648 26.1981 18.6885C26.4038 18.5122 26.6389 18.3849 26.9033 18.3065C27.1678 18.2183 27.4323 18.1743 27.6968 18.1743C27.971 18.1743 28.2404 18.2183 28.5049 18.3065C28.7694 18.3947 29.0044 18.5269 29.2101 18.7032C29.4256 18.8795 29.5971 19.0999 29.7244 19.3644C29.8517 19.6191 29.9154 19.9129 29.9154 20.246C29.9154 20.579 29.8468 20.8827 29.7097 21.1569C29.5824 21.4312 29.4109 21.6712 29.1954 21.8769C28.98 22.0728 28.7351 22.2246 28.4608 22.3324C28.1865 22.4401 27.9025 22.494 27.6086 22.494C27.3539 22.494 27.0993 22.445 26.8446 22.3471C26.5997 22.2491 26.3744 22.1071 26.1687 21.921C25.9728 21.7349 25.8063 21.5047 25.6691 21.2304C25.5418 20.9561 25.4683 20.6427 25.4487 20.2901ZM30.5031 26.2407C30.5227 25.8881 30.5962 25.5844 30.7235 25.3297C30.8606 25.0653 31.0321 24.8498 31.2378 24.6832C31.4435 24.5069 31.6737 24.3796 31.9283 24.3012C32.183 24.2131 32.4426 24.169 32.7071 24.169C32.9715 24.169 33.2311 24.2131 33.4858 24.3012C33.7503 24.3894 33.9853 24.5216 34.191 24.6979C34.4065 24.8645 34.578 25.0751 34.7053 25.3297C34.8326 25.5746 34.8963 25.8636 34.8963 26.1966C34.8963 26.5394 34.8326 26.848 34.7053 27.1223C34.5878 27.3965 34.4261 27.6267 34.2204 27.8128C34.0147 27.9989 33.7747 28.141 33.5005 28.2389C33.236 28.3369 32.9617 28.3859 32.6777 28.3859C32.4328 28.3859 32.1879 28.3418 31.943 28.2536C31.6981 28.1753 31.4729 28.0479 31.2672 27.8716C31.0615 27.6953 30.89 27.4749 30.7529 27.2104C30.6158 26.9362 30.5325 26.6129 30.5031 26.2407ZM27.638 19.4379C27.5205 19.4379 27.4176 19.4672 27.3294 19.526C27.2511 19.575 27.1825 19.6436 27.1237 19.7317C27.065 19.8101 27.016 19.9031 26.9768 20.0109C26.9474 20.1088 26.9229 20.2068 26.9033 20.3047C26.9327 20.6084 27.0258 20.8288 27.1825 20.9659C27.3392 21.1031 27.5156 21.1716 27.7115 21.1716C27.8976 21.1716 28.069 21.0982 28.2257 20.9512C28.3922 20.8043 28.4755 20.5839 28.4755 20.2901C28.4755 20.055 28.3873 19.8542 28.211 19.6876C28.0445 19.5211 27.8535 19.4379 27.638 19.4379ZM32.6924 25.462C32.4377 25.462 32.2565 25.5452 32.1487 25.7117C32.0508 25.8783 31.9871 26.0546 31.9577 26.2407C31.9871 26.5248 32.0753 26.7403 32.2222 26.8872C32.3691 27.0243 32.5405 27.0929 32.7364 27.0929C32.903 27.0929 33.0646 27.0243 33.2213 26.8872C33.378 26.7403 33.4564 26.5248 33.4564 26.2407C33.4564 25.9958 33.378 25.8048 33.2213 25.6677C33.0646 25.5305 32.8883 25.462 32.6924 25.462Z" fill="white"/>
</g>
<defs>
<clipPath id="clip0_0_17976">
<rect width="37" height="37" fill="white" transform="translate(5 5)"/>
</clipPath>
</defs>
</svg>
