<svg width="46" height="46" viewBox="0 0 46 46" fill="none" xmlns="http://www.w3.org/2000/svg">
<rect width="46" height="46" rx="13" fill="#0328EE"/>
<g clip-path="url(#clip0_0_9090)">
<path d="M22.7721 28.1763C16.4231 28.1763 11.0024 29.1913 11.0024 33.2468C11.0024 37.3007 16.3901 38.3523 22.7721 38.3523C29.1195 38.3523 34.5418 37.3373 34.5418 33.2818C34.5418 29.2263 29.1541 28.1763 22.7721 28.1763Z" fill="white"/>
<path opacity="0.4" d="M22.7717 24.3139C27.0945 24.3139 30.5596 20.8041 30.5596 16.4257C30.5596 12.0472 27.0945 8.53589 22.7717 8.53589C18.449 8.53589 14.9839 12.0472 14.9839 16.4257C14.9839 20.8041 18.449 24.3139 22.7717 24.3139Z" fill="white"/>
</g>
<defs>
<clipPath id="clip0_0_9090">
<rect width="24" height="31" fill="white" transform="translate(11 8)"/>
</clipPath>
</defs>
</svg>
