<svg width="46" height="46" viewBox="0 0 46 46" fill="none" xmlns="http://www.w3.org/2000/svg">
<rect width="46" height="46" rx="23" fill="white"/>
<g clip-path="url(#clip0_159_28962)">
<path d="M34.4972 19.7778C34.9866 16.4379 32.4925 14.6423 29.0817 13.4446L30.1894 8.92055L27.4875 8.23435L26.4084 12.6394C25.6989 12.4592 24.9698 12.2881 24.2451 12.1204L25.3282 7.6862L22.6291 7L21.5246 11.5223L16.0765 10.1464L15.3577 13.0882C15.3577 13.0882 17.362 13.5565 17.3197 13.5857C18.4136 13.8643 18.612 14.6021 18.5785 15.1875L15.5473 27.5812C15.4134 27.92 15.0742 28.428 14.3096 28.2338C14.3367 28.2739 12.3462 27.7318 12.3462 27.7318L11.0051 30.8889L16.4453 32.2895L15.3272 36.8662L18.0251 37.5524L19.1329 33.0248C19.8713 33.2286 20.5852 33.4169 21.2848 33.5941L20.1815 38.1006L22.8829 38.7868L24.0009 34.2188C28.6073 35.1073 32.0713 34.7489 33.5273 30.5042C34.702 27.0845 33.4697 25.1117 31.0461 23.8247C32.811 23.408 34.1403 22.2249 34.495 19.7795L34.4972 19.7778ZM28.3235 28.6022C27.4865 32.0219 21.8409 30.1739 20.0089 29.7096L21.4923 23.647C23.3232 24.1128 29.1944 25.0355 28.3245 28.6017L28.3235 28.6022ZM29.1614 19.7293C28.3998 22.8416 23.6989 21.2603 22.1732 20.8723L23.5162 15.3722C25.0424 15.7607 29.9536 16.484 29.1595 19.7291" fill="#010725"/>
</g>
<defs>
<clipPath id="clip0_159_28962">
<rect width="24" height="32" fill="white" transform="translate(11.0051 7)"/>
</clipPath>
</defs>
</svg>
