<svg width="41" height="26" viewBox="0 0 41 26" fill="none" xmlns="http://www.w3.org/2000/svg">
<rect width="41" height="26" rx="13" fill="#010D50"/>
<path d="M9.15522 16.5V8.1H12.3232C13.1952 8.1 13.8552 8.304 14.3032 8.712C14.7512 9.12 14.9752 9.632 14.9752 10.248C14.9752 10.784 14.8312 11.212 14.5432 11.532C14.2552 11.844 13.9072 12.056 13.4992 12.168C13.8192 12.232 14.1032 12.36 14.3512 12.552C14.6072 12.744 14.8072 12.984 14.9512 13.272C15.0952 13.56 15.1672 13.872 15.1672 14.208C15.1672 14.64 15.0592 15.032 14.8432 15.384C14.6352 15.728 14.3272 16 13.9192 16.2C13.5112 16.4 13.0112 16.5 12.4192 16.5H9.15522ZM10.4272 11.7H12.1672C12.6552 11.7 13.0272 11.588 13.2832 11.364C13.5392 11.132 13.6672 10.816 13.6672 10.416C13.6672 10.024 13.5392 9.712 13.2832 9.48C13.0352 9.248 12.6552 9.132 12.1432 9.132H10.4272V11.7ZM10.4272 15.456H12.2512C12.7632 15.456 13.1592 15.336 13.4392 15.096C13.7272 14.856 13.8712 14.52 13.8712 14.088C13.8712 13.656 13.7232 13.316 13.4272 13.068C13.1312 12.812 12.7312 12.684 12.2272 12.684H10.4272V15.456ZM18.9771 16.5V9.132H16.4931V8.1H22.7211V9.132H20.2491V16.5H18.9771ZM27.8805 16.644C27.0485 16.644 26.3285 16.464 25.7205 16.104C25.1205 15.736 24.6565 15.228 24.3285 14.58C24.0005 13.924 23.8365 13.168 23.8365 12.312C23.8365 11.448 24.0005 10.692 24.3285 10.044C24.6565 9.388 25.1205 8.876 25.7205 8.508C26.3285 8.14 27.0485 7.956 27.8805 7.956C28.8645 7.956 29.6685 8.196 30.2925 8.676C30.9165 9.156 31.3125 9.828 31.4805 10.692H30.0645C29.9525 10.204 29.7125 9.816 29.3445 9.528C28.9765 9.24 28.4845 9.096 27.8685 9.096C27.0285 9.096 26.3645 9.384 25.8765 9.96C25.3885 10.528 25.1445 11.312 25.1445 12.312C25.1445 13.304 25.3885 14.084 25.8765 14.652C26.3645 15.22 27.0285 15.504 27.8685 15.504C28.4845 15.504 28.9765 15.368 29.3445 15.096C29.7125 14.824 29.9525 14.452 30.0645 13.98H31.4805C31.3125 14.812 30.9165 15.464 30.2925 15.936C29.6685 16.408 28.8645 16.644 27.8805 16.644Z" fill="white"/>
</svg>
