<svg width="181" height="30" viewBox="0 0 181 30" fill="none" xmlns="http://www.w3.org/2000/svg">
<g clip-path="url(#clip0_0_17861)">
<path d="M41.0483 12.0431C41.0483 10.143 41.4726 8.44587 42.3211 6.95164C43.1882 5.43896 44.3596 4.26755 45.8353 3.43742C47.3296 2.58884 48.9991 2.16455 50.8438 2.16455C53.0021 2.16455 54.893 2.71797 56.5164 3.82481C58.1397 4.93166 59.2742 6.46278 59.9199 8.4182H55.4649C55.0221 7.49584 54.3949 6.80406 53.5832 6.34288C52.79 5.88169 51.8676 5.6511 50.8161 5.6511C49.6908 5.6511 48.6855 5.91859 47.8 6.45356C46.933 6.97009 46.2504 7.70798 45.7523 8.66724C45.2727 9.6265 45.0329 10.7518 45.0329 12.0431C45.0329 13.3159 45.2727 14.4412 45.7523 15.4189C46.2504 16.3782 46.933 17.1253 47.8 17.6603C48.6855 18.1768 49.6908 18.4351 50.8161 18.4351C51.8676 18.4351 52.79 18.2045 53.5832 17.7433C54.3949 17.2637 55.0221 16.5627 55.4649 15.6403H59.9199C59.2742 17.6142 58.1397 19.1545 56.5164 20.2614C54.9114 21.3498 53.0206 21.894 50.8438 21.894C48.9991 21.894 47.3296 21.4789 45.8353 20.6488C44.3596 19.8002 43.1882 18.6288 42.3211 17.1345C41.4726 15.6403 41.0483 13.9432 41.0483 12.0431Z" fill="white"/>
<path d="M70.0359 21.9773C68.5601 21.9773 67.2319 21.6544 66.0513 21.0088C64.8706 20.3447 63.9391 19.4131 63.2565 18.214C62.5924 17.0149 62.2603 15.6314 62.2603 14.0634C62.2603 12.4953 62.6016 11.1118 63.2842 9.91267C63.9852 8.71359 64.9352 7.79122 66.1343 7.14557C67.3334 6.48146 68.6708 6.14941 70.1466 6.14941C71.6224 6.14941 72.9598 6.48146 74.1589 7.14557C75.358 7.79122 76.2988 8.71359 76.9813 9.91267C77.6823 11.1118 78.0328 12.4953 78.0328 14.0634C78.0328 15.6314 77.6731 17.0149 76.9537 18.214C76.2527 19.4131 75.2934 20.3447 74.0759 21.0088C72.8768 21.6544 71.5301 21.9773 70.0359 21.9773ZM70.0359 18.6014C70.7369 18.6014 71.3918 18.4354 72.0005 18.1033C72.6278 17.7528 73.1258 17.2363 73.4948 16.5538C73.8637 15.8712 74.0482 15.0411 74.0482 14.0634C74.0482 12.606 73.6608 11.49 72.886 10.7152C72.1297 9.92189 71.1981 9.52527 70.0912 9.52527C68.9844 9.52527 68.0528 9.92189 67.2965 10.7152C66.5586 11.49 66.1896 12.606 66.1896 14.0634C66.1896 15.5207 66.5494 16.646 67.2688 17.4392C68.0067 18.214 68.9291 18.6014 70.0359 18.6014Z" fill="white"/>
<path d="M99.9122 6.17676C101.794 6.17676 103.307 6.75785 104.45 7.92003C105.612 9.06377 106.194 10.6686 106.194 12.7348V21.7278H102.32V13.2605C102.32 12.0614 102.015 11.1483 101.406 10.5211C100.798 9.87545 99.9675 9.55262 98.916 9.55262C97.8645 9.55262 97.0251 9.87545 96.3979 10.5211C95.7892 11.1483 95.4848 12.0614 95.4848 13.2605V21.7278H91.6109V13.2605C91.6109 12.0614 91.3065 11.1483 90.6977 10.5211C90.089 9.87545 89.2588 9.55262 88.2073 9.55262C87.1374 9.55262 86.2888 9.87545 85.6616 10.5211C85.0528 11.1483 84.7484 12.0614 84.7484 13.2605V21.7278H80.8745V6.39813H84.7484V8.25209C85.2465 7.60643 85.883 7.09913 86.6577 6.73018C87.451 6.36123 88.318 6.17676 89.2588 6.17676C90.4579 6.17676 91.5278 6.43502 92.4687 6.95155C93.4095 7.44963 94.1381 8.16907 94.6547 9.10989C95.1527 8.22442 95.8722 7.51419 96.813 6.97922C97.7723 6.44425 98.8053 6.17676 99.9122 6.17676Z" fill="white"/>
<path d="M113.744 8.61213C114.242 7.91113 114.924 7.33004 115.791 6.86886C116.677 6.38923 117.682 6.14941 118.807 6.14941C120.117 6.14941 121.298 6.47224 122.349 7.1179C123.419 7.76355 124.259 8.68592 124.867 9.885C125.495 11.0657 125.808 12.44 125.808 14.008C125.808 15.576 125.495 16.9688 124.867 18.1863C124.259 19.3854 123.419 20.317 122.349 20.9811C121.298 21.6452 120.117 21.9773 118.807 21.9773C117.682 21.9773 116.686 21.7467 115.819 21.2855C114.97 20.8243 114.279 20.2432 113.744 19.5422V29.0334H109.87V6.39845H113.744V8.61213ZM121.851 14.008C121.851 13.0857 121.658 12.2924 121.27 11.6283C120.901 10.9458 120.403 10.4292 119.776 10.0787C119.167 9.72819 118.503 9.55294 117.784 9.55294C117.083 9.55294 116.419 9.73742 115.791 10.1064C115.183 10.4569 114.684 10.9734 114.297 11.656C113.928 12.3385 113.744 13.141 113.744 14.0634C113.744 14.9857 113.928 15.7882 114.297 16.4707C114.684 17.1533 115.183 17.679 115.791 18.048C116.419 18.3985 117.083 18.5737 117.784 18.5737C118.503 18.5737 119.167 18.3893 119.776 18.0203C120.403 17.6514 120.901 17.1256 121.27 16.4431C121.658 15.7605 121.851 14.9488 121.851 14.008Z" fill="white"/>
<path d="M127.627 14.008C127.627 12.4584 127.932 11.0841 128.54 9.885C129.167 8.68592 130.007 7.76355 131.058 7.1179C132.128 6.47224 133.318 6.14941 134.628 6.14941C135.772 6.14941 136.768 6.38 137.616 6.84118C138.483 7.30237 139.175 7.88346 139.692 8.58446V6.39845H143.593V21.7282H139.692V19.4869C139.194 20.2063 138.502 20.8059 137.616 21.2855C136.749 21.7467 135.744 21.9773 134.6 21.9773C133.309 21.9773 132.128 21.6452 131.058 20.9811C130.007 20.317 129.167 19.3854 128.54 18.1863C127.932 16.9688 127.627 15.576 127.627 14.008ZM139.692 14.0634C139.692 13.1225 139.507 12.3201 139.138 11.656C138.769 10.9734 138.271 10.4569 137.644 10.1064C137.017 9.73742 136.344 9.55294 135.624 9.55294C134.905 9.55294 134.241 9.72819 133.632 10.0787C133.023 10.4292 132.525 10.9458 132.138 11.6283C131.769 12.2924 131.584 13.0857 131.584 14.008C131.584 14.9304 131.769 15.7421 132.138 16.4431C132.525 17.1256 133.023 17.6514 133.632 18.0203C134.259 18.3893 134.923 18.5737 135.624 18.5737C136.344 18.5737 137.017 18.3985 137.644 18.048C138.271 17.679 138.769 17.1625 139.138 16.4984C139.507 15.8159 139.692 15.0042 139.692 14.0634Z" fill="white"/>
<path d="M155.872 6.17676C157.698 6.17676 159.174 6.75785 160.299 7.92003C161.425 9.06377 161.987 10.6686 161.987 12.7348V21.7278H158.113V13.2605C158.113 12.043 157.809 11.1114 157.2 10.4658C156.591 9.80166 155.761 9.46961 154.71 9.46961C153.64 9.46961 152.791 9.80166 152.164 10.4658C151.555 11.1114 151.251 12.043 151.251 13.2605V21.7278H147.377V6.39813H151.251V8.30743C151.767 7.64332 152.422 7.1268 153.215 6.75785C154.027 6.37046 154.913 6.17676 155.872 6.17676Z" fill="white"/>
<path d="M180.337 6.39844L170.846 28.9779H166.723L170.043 21.3407L163.9 6.39844H168.245L172.201 17.1071L176.214 6.39844H180.337Z" fill="white"/>
<path d="M12.0032 28.8286C6.08841 28.8286 1.3125 24.016 1.3125 18.1379C1.3125 12.2599 6.08841 7.44727 12.0032 7.44727C17.8812 7.44727 22.6939 12.2232 22.6939 18.1379C22.6571 24.016 17.8812 28.8286 12.0032 28.8286Z" fill="#0328EE"/>
<path d="M27.805 0.614746H13.7246C12.7737 0.614746 12.0029 1.38559 12.0029 2.33648V16.4169C12.0029 17.3678 12.7737 18.1386 13.7246 18.1386H27.805C28.7559 18.1386 29.5268 17.3678 29.5268 16.4169V2.33648C29.5268 1.38559 28.7559 0.614746 27.805 0.614746Z" fill="white"/>
</g>
<defs>
<clipPath id="clip0_0_17861">
<rect width="180" height="29" fill="white" transform="translate(0.5 0.53125)"/>
</clipPath>
</defs>
</svg>
