<svg width="184" height="27" viewBox="0 0 184 27" fill="none" xmlns="http://www.w3.org/2000/svg">
<g clip-path="url(#clip0_0_17822)">
<path d="M64.4802 20.7079C63.0127 20.7079 61.7192 20.3959 60.5992 19.7719C59.4794 19.1479 58.5912 18.2779 57.9347 17.1623C57.2976 16.0466 56.979 14.7701 56.979 13.333C56.979 11.8958 57.2976 10.6193 57.9347 9.50365C58.5912 8.38796 59.4794 7.51809 60.5992 6.89405C61.7192 6.27003 63.0127 5.95801 64.4802 5.95801C66.3145 5.95801 67.8591 6.43076 69.1141 7.37626C70.3692 8.30286 71.1704 9.58875 71.518 11.2339H67.6082C67.415 10.5531 67.0289 10.0236 66.4496 9.64548C65.8897 9.24836 65.2236 9.04981 64.4512 9.04981C63.4279 9.04981 62.5591 9.42801 61.8447 10.1844C61.1303 10.9408 60.7731 11.9903 60.7731 13.333C60.7731 14.6756 61.1303 15.7251 61.8447 16.4815C62.5591 17.2379 63.4279 17.6161 64.4512 17.6161C65.2236 17.6161 65.8897 17.427 66.4496 17.0488C67.0289 16.6706 67.415 16.1317 67.6082 15.432H71.518C71.1704 17.0204 70.3692 18.2968 69.1141 19.2613C67.8591 20.2257 66.3145 20.7079 64.4802 20.7079Z" fill="white"/>
<path d="M81.1221 20.7079C79.7319 20.7079 78.4768 20.3959 77.3569 19.7719C76.2564 19.1479 75.3779 18.2874 74.7214 17.1906C74.0842 16.0749 73.7656 14.789 73.7656 13.333C73.7656 11.8769 74.0939 10.6004 74.7503 9.50365C75.4068 8.38796 76.2853 7.51809 77.3859 6.89405C78.5058 6.27003 79.7608 5.95801 81.151 5.95801C82.5219 5.95801 83.7576 6.27003 84.8582 6.89405C85.978 7.51809 86.8565 8.38796 87.4938 9.50365C88.1502 10.6004 88.4785 11.8769 88.4785 13.333C88.4785 14.789 88.1502 16.0749 87.4938 17.1906C86.8565 18.2874 85.978 19.1479 84.8582 19.7719C83.7383 20.3959 82.4929 20.7079 81.1221 20.7079ZM81.1221 17.5593C82.0875 17.5593 82.9274 17.2095 83.6418 16.5098C84.3561 15.7913 84.7133 14.7323 84.7133 13.333C84.7133 11.9336 84.3561 10.8841 83.6418 10.1844C82.9274 9.46583 82.0971 9.10654 81.151 9.10654C80.1663 9.10654 79.3167 9.46583 78.6024 10.1844C77.9073 10.8841 77.5597 11.9336 77.5597 13.333C77.5597 14.7323 77.9073 15.7913 78.6024 16.5098C79.3167 17.2095 80.1567 17.5593 81.1221 17.5593Z" fill="white"/>
<path d="M91.2139 20.3675V6.29838H94.4862L94.8048 8.19886C95.2689 7.51809 95.8768 6.97915 96.6302 6.58204C97.4019 6.16602 98.2907 5.95801 99.294 5.95801C101.515 5.95801 103.088 6.7995 104.015 8.48251C104.537 7.70719 105.231 7.09261 106.1 6.63877C106.989 6.18492 107.954 5.95801 108.997 5.95801C110.87 5.95801 112.308 6.5064 113.312 7.60319C114.316 8.69998 114.818 10.3073 114.818 12.4252V20.3675H111.111V12.7657C111.111 11.5554 110.87 10.6288 110.387 9.9859C109.924 9.34292 109.2 9.02144 108.215 9.02144C107.211 9.02144 106.4 9.38074 105.782 10.0993C105.183 10.8179 104.885 11.8202 104.885 13.106V20.3675H101.177V12.7657C101.177 11.5554 100.935 10.6288 100.453 9.9859C99.9705 9.34292 99.2272 9.02144 98.223 9.02144C97.238 9.02144 96.437 9.38074 95.8191 10.0993C95.2204 10.8179 94.9211 11.8202 94.9211 13.106V20.3675H91.2139Z" fill="white"/>
<path d="M117.758 26.6079V6.29838H121.06L121.466 8.31232C121.929 7.68828 122.538 7.13989 123.29 6.66714C124.063 6.19438 125.057 5.95801 126.274 5.95801C127.625 5.95801 128.832 6.27948 129.894 6.92242C130.956 7.56536 131.795 8.44468 132.413 9.56039C133.031 10.6761 133.341 11.9431 133.341 13.3613C133.341 14.7796 133.031 16.0466 132.413 17.1623C131.795 18.259 130.956 19.1289 129.894 19.7719C128.832 20.3959 127.625 20.7079 126.274 20.7079C125.192 20.7079 124.246 20.5094 123.435 20.1123C122.625 19.7151 121.967 19.1573 121.466 18.4387V26.6079H117.758ZM125.492 17.531C126.669 17.531 127.645 17.1433 128.417 16.368C129.189 15.5928 129.576 14.5905 129.576 13.3613C129.576 12.1322 129.189 11.1205 128.417 10.3262C127.645 9.53202 126.669 9.1349 125.492 9.1349C124.294 9.1349 123.309 9.53202 122.538 10.3262C121.784 11.1016 121.408 12.1038 121.408 13.333C121.408 14.5621 121.784 15.5738 122.538 16.368C123.309 17.1433 124.294 17.531 125.492 17.531Z" fill="white"/>
<path d="M141.025 20.7079C139.79 20.7079 138.775 20.5188 137.984 20.1406C137.193 19.7435 136.604 19.2234 136.218 18.5805C135.831 17.9376 135.638 17.2284 135.638 16.4531C135.638 15.1483 136.159 14.0893 137.202 13.2762C138.244 12.4631 139.809 12.0565 141.894 12.0565H145.543V11.7162C145.543 10.7517 145.263 10.0426 144.704 9.58875C144.143 9.1349 143.449 8.90799 142.618 8.90799C141.865 8.90799 141.209 9.08763 140.648 9.44692C140.089 9.78731 139.741 10.2979 139.606 10.9787H135.986C136.082 9.95748 136.43 9.06872 137.029 8.31232C137.647 7.55591 138.438 6.97915 139.403 6.58204C140.369 6.16602 141.45 5.95801 142.647 5.95801C144.694 5.95801 146.306 6.45913 147.484 7.46136C148.662 8.46359 149.251 9.8819 149.251 11.7162V20.3675H146.093L145.746 18.0983C145.322 18.8547 144.723 19.4788 143.95 19.9704C143.198 20.4621 142.222 20.7079 141.025 20.7079ZM141.865 17.8713C142.927 17.8713 143.748 17.531 144.326 16.8503C144.925 16.1695 145.302 15.328 145.456 14.3257H142.3C141.315 14.3257 140.61 14.5054 140.185 14.8647C139.76 15.2051 139.548 15.6305 139.548 16.1411C139.548 16.6895 139.76 17.115 140.185 17.4175C140.61 17.7201 141.17 17.8713 141.865 17.8713Z" fill="white"/>
<path d="M152.209 20.3675V6.29838H155.482L155.771 8.68106C156.215 7.84901 156.852 7.18716 157.682 6.6955C158.532 6.20383 159.527 5.95801 160.666 5.95801C162.442 5.95801 163.823 6.5064 164.807 7.60319C165.792 8.69998 166.285 10.3073 166.285 12.4252V20.3675H162.577V12.7657C162.577 11.5554 162.326 10.6288 161.824 9.9859C161.322 9.34292 160.54 9.02144 159.478 9.02144C158.436 9.02144 157.576 9.38074 156.901 10.0993C156.244 10.8179 155.916 11.8202 155.916 13.106V20.3675H152.209Z" fill="white"/>
<path d="M170.565 26.6078L173.895 19.4314H173.027L167.437 6.29834H171.463L175.488 16.1978L179.688 6.29834H183.627L174.504 26.6078H170.565Z" fill="white"/>
<path d="M14.7256 24.1621C13.757 25.1108 12.1862 25.1094 11.2193 24.1592L1.96328 15.0628C0.998698 14.1149 1.00004 12.581 1.96629 11.6347L11.2223 2.5695C12.1885 1.62317 13.7547 1.62185 14.7226 2.56656L24.0104 11.6317C24.9806 12.5788 24.982 14.1171 24.0134 15.0658L14.7256 24.1621Z" fill="#0328EE"/>
<path d="M27.5202 24.1586C26.5533 25.1089 24.9825 25.1102 24.0138 24.1616L14.7261 15.0653C13.7574 14.1166 13.7588 12.5782 14.7291 11.6312L24.0169 2.56607C24.9847 1.62136 26.5509 1.62268 27.5172 2.56901L36.7732 11.6342C37.7394 12.5805 37.7408 14.1144 36.7762 15.0623L27.5202 24.1586Z" fill="white"/>
<path d="M37.0042 24.1603C36.0365 25.1096 34.4659 25.1096 33.4982 24.1603L24.2246 15.0637C23.258 14.1154 23.2592 12.579 24.2277 11.6323L33.5012 2.56692C34.4682 1.62157 36.0342 1.62157 37.0013 2.56692L46.2747 11.6323C47.2431 12.579 47.2445 14.1154 46.2777 15.0637L37.0042 24.1603Z" fill="#0328EE"/>
</g>
<defs>
<clipPath id="clip0_0_17822">
<rect width="184" height="26" fill="white" transform="translate(0.217773 0.78125)"/>
</clipPath>
</defs>
</svg>
