<svg width="178" height="30" viewBox="0 0 178 30" fill="none" xmlns="http://www.w3.org/2000/svg">
<g clip-path="url(#clip0_0_17848)">
<path d="M22.6021 12.7751C18.8417 12.7751 15.7892 9.73424 15.7892 5.99702C15.7892 5.50955 15.8473 5.0453 15.9401 4.58105H6.88721C3.38211 4.58105 0.538574 7.41298 0.538574 10.8949V22.5592C0.538574 26.0527 3.38211 28.873 6.88721 28.873H18.6096C22.1263 28.873 24.9582 26.0411 24.9582 22.5592V12.3457C24.2386 12.6126 23.4378 12.7751 22.6021 12.7751Z" fill="#0328EE"/>
<path d="M24.969 22.5592V12.3457C24.2378 12.6126 23.4369 12.7751 22.6129 12.7751C18.8524 12.7751 15.8 9.73424 15.8 5.99702C15.8 5.50955 15.858 5.0453 15.9509 4.58105H6.89795C3.41607 4.58105 0.595741 7.36656 0.549316 10.8253C8.90584 14.2723 17.4945 18.4622 24.9225 23.36C24.9457 23.0931 24.969 22.8261 24.969 22.5592Z" fill="#0328EE"/>
<path d="M23.1236 10.4336C25.8511 10.4336 28.0563 8.24007 28.0563 5.5242C28.0563 2.81994 25.8511 0.614746 23.1236 0.614746C20.3961 0.614746 18.1909 2.80833 18.1909 5.5242C18.1909 8.22846 20.3961 10.4336 23.1236 10.4336Z" fill="white"/>
<path d="M53.0086 16.6791C52.8145 17.5041 52.4869 18.3049 52.0258 19.0815C51.5648 19.8338 50.9945 20.5132 50.315 21.1199C49.6355 21.7023 48.859 22.1755 47.9854 22.5395C47.1118 22.8793 46.1775 23.0491 45.1826 23.0491C44.042 23.0491 42.9621 22.8307 41.9429 22.3939C40.948 21.9328 40.0622 21.314 39.2857 20.5375C38.5334 19.761 37.9268 18.8631 37.4657 17.8439C37.0289 16.8004 36.8105 15.6841 36.8105 14.495C36.8105 13.306 37.0289 12.2018 37.4657 11.1826C37.9268 10.1391 38.5334 9.22908 39.2857 8.45254C40.0622 7.676 40.948 7.06933 41.9429 6.63252C42.9621 6.17145 44.042 5.94092 45.1826 5.94092C46.1775 5.94092 47.1118 6.12292 47.9854 6.48692C48.859 6.82666 49.6355 7.29986 50.315 7.90654C50.9945 8.48894 51.5648 9.16842 52.0258 9.94496C52.4869 10.6973 52.8145 11.4859 53.0086 12.311H48.8226C48.6285 11.8742 48.3615 11.4859 48.0218 11.1462C47.7306 10.855 47.3545 10.5881 46.8934 10.3454C46.4323 10.0784 45.862 9.94496 45.1826 9.94496C43.9935 9.94496 42.9985 10.3575 42.1977 11.1826C41.3969 12.0077 40.9965 13.1118 40.9965 14.495C40.9965 15.8782 41.3969 16.9824 42.1977 17.8075C42.9985 18.6325 43.9935 19.0451 45.1826 19.0451C45.862 19.0451 46.4323 18.9237 46.8934 18.6811C47.3545 18.4384 47.7306 18.1715 48.0218 17.8803C48.3615 17.5405 48.6285 17.1401 48.8226 16.6791H53.0086Z" fill="white"/>
<path d="M59.9248 14.495C59.9248 15.8782 60.3252 16.9824 61.126 17.8075C61.9268 18.6325 62.9218 19.0451 64.1109 19.0451C65.2999 19.0451 66.2949 18.6325 67.0957 17.8075C67.8965 16.9824 68.2969 15.8782 68.2969 14.495C68.2969 13.1118 67.8965 12.0077 67.0957 11.1826C66.2949 10.3575 65.2999 9.94496 64.1109 9.94496C62.9218 9.94496 61.9268 10.3575 61.126 11.1826C60.3252 12.0077 59.9248 13.1118 59.9248 14.495ZM72.4829 14.495C72.4829 15.6841 72.2524 16.8004 71.7913 17.8439C71.3545 18.8631 70.7479 19.761 69.9713 20.5375C69.219 21.314 68.3333 21.9328 67.3141 22.3939C66.3191 22.8307 65.2514 23.0491 64.1109 23.0491C62.9703 23.0491 61.8904 22.8307 60.8712 22.3939C59.8763 21.9328 58.9905 21.314 58.214 20.5375C57.4617 19.761 56.855 18.8631 56.394 17.8439C55.9572 16.8004 55.7388 15.6841 55.7388 14.495C55.7388 13.306 55.9572 12.2018 56.394 11.1826C56.855 10.1391 57.4617 9.22908 58.214 8.45254C58.9905 7.676 59.8763 7.06933 60.8712 6.63252C61.8904 6.17145 62.9703 5.94092 64.1109 5.94092C65.2514 5.94092 66.3191 6.17145 67.3141 6.63252C68.3333 7.06933 69.219 7.676 69.9713 8.45254C70.7479 9.22908 71.3545 10.1391 71.7913 11.1826C72.2524 12.2018 72.4829 13.306 72.4829 14.495Z" fill="white"/>
<path d="M84.1142 5.94092C84.9635 5.94092 85.6915 6.06225 86.2982 6.30492C86.9049 6.52332 87.4024 6.76599 87.7906 7.03293C88.2274 7.3484 88.5793 7.7124 88.8462 8.12494C89.2345 7.7124 89.6834 7.3484 90.1931 7.03293C90.6299 6.76599 91.1516 6.52332 91.7583 6.30492C92.3649 6.06225 93.0323 5.94092 93.7603 5.94092C95.5803 5.94092 97.0363 6.52332 98.1283 7.68813C99.2203 8.85295 99.7663 10.5759 99.7663 12.857V22.8671H95.5803V13.221C95.5803 12.2018 95.3012 11.401 94.7431 10.8186C94.2092 10.2362 93.5783 9.94496 92.8503 9.94496C92.1223 9.94496 91.4792 10.2362 90.9211 10.8186C90.3872 11.401 90.1203 12.2018 90.1203 13.221V22.8671H85.9342V13.221C85.9342 12.2018 85.6551 11.401 85.097 10.8186C84.5631 10.2362 83.9322 9.94496 83.2042 9.94496C82.4762 9.94496 81.8331 10.2362 81.275 10.8186C80.7411 11.401 80.4742 12.2018 80.4742 13.221V22.8671H76.2881V6.12292H79.3821L80.1102 7.76093C80.4499 7.4212 80.826 7.11786 81.2386 6.85092C81.5783 6.63252 81.9908 6.42625 82.4762 6.23212C82.9615 6.03798 83.5075 5.94092 84.1142 5.94092Z" fill="white"/>
<path d="M112.87 5.94092C113.914 5.94092 114.909 6.15932 115.855 6.59612C116.801 7.00866 117.626 7.6032 118.33 8.37974C119.058 9.13202 119.629 10.0299 120.041 11.0734C120.478 12.1169 120.696 13.2574 120.696 14.495C120.696 15.7326 120.478 16.8732 120.041 17.9167C119.629 18.9601 119.058 19.8702 118.33 20.6467C117.626 21.399 116.801 21.9935 115.855 22.4303C114.909 22.8429 113.914 23.0491 112.87 23.0491C112.166 23.0491 111.548 22.9642 111.014 22.7943C110.504 22.6245 110.055 22.4424 109.667 22.2483C109.23 22.0056 108.842 21.7266 108.502 21.4111V28.6912H104.316V6.12292H107.41L108.138 7.76093C108.502 7.4212 108.927 7.11786 109.412 6.85092C109.825 6.63252 110.322 6.42625 110.905 6.23212C111.487 6.03798 112.142 5.94092 112.87 5.94092ZM108.138 14.495C108.138 15.8782 108.539 16.9824 109.339 17.8075C110.14 18.6325 111.135 19.0451 112.324 19.0451C113.513 19.0451 114.508 18.6325 115.309 17.8075C116.11 16.9824 116.51 15.8782 116.51 14.495C116.51 13.1118 116.11 12.0077 115.309 11.1826C114.508 10.3575 113.513 9.94496 112.324 9.94496C111.135 9.94496 110.14 10.3575 109.339 11.1826C108.539 12.0077 108.138 13.1118 108.138 14.495Z" fill="white"/>
<path d="M131.44 5.94092C132.386 5.94092 133.26 6.11078 134.061 6.45052C134.862 6.76599 135.553 7.21493 136.136 7.79733C136.718 8.37974 137.167 9.07135 137.483 9.87216C137.822 10.673 137.992 11.5466 137.992 12.493V22.8671H134.898L134.17 21.2291C133.782 21.5688 133.357 21.8722 132.896 22.1391C132.484 22.3818 131.986 22.6002 131.404 22.7943C130.821 22.9642 130.166 23.0491 129.438 23.0491C127.618 23.0491 126.223 22.6123 125.252 21.7387C124.281 20.8408 123.796 19.7003 123.796 18.3171C123.796 17.492 123.954 16.7397 124.269 16.0602C124.609 15.3565 125.167 14.762 125.944 14.2766C126.72 13.767 127.739 13.3788 129.001 13.1118C130.287 12.8206 131.889 12.675 133.806 12.675C133.806 11.7529 133.551 11.037 133.042 10.5274C132.556 10.0178 131.901 9.76296 131.076 9.76296C130.518 9.76296 130.069 9.86002 129.729 10.0542C129.414 10.2483 129.159 10.4546 128.965 10.673C128.746 10.9399 128.601 11.2433 128.528 11.583H124.342C124.439 10.8065 124.657 10.0784 124.997 9.39895C125.361 8.71948 125.847 8.12494 126.453 7.61533C127.06 7.10573 127.776 6.70532 128.601 6.41412C129.45 6.09865 130.397 5.94092 131.44 5.94092ZM130.166 19.7731C131.258 19.7731 132.132 19.4576 132.787 18.8267C133.466 18.1715 133.806 17.3343 133.806 16.3151V15.587C132.568 15.587 131.574 15.6477 130.821 15.769C130.069 15.8661 129.474 16.0238 129.038 16.2423C128.625 16.4364 128.346 16.6791 128.2 16.9703C128.055 17.2615 127.982 17.5891 127.982 17.9531C127.982 18.4141 128.188 18.8388 128.601 19.2271C129.013 19.5911 129.535 19.7731 130.166 19.7731Z" fill="white"/>
<path d="M151.082 5.94092C152.077 5.94092 152.987 6.11078 153.812 6.45052C154.637 6.76599 155.341 7.2392 155.923 7.87014C156.53 8.47681 156.991 9.21695 157.306 10.0906C157.646 10.9642 157.816 11.947 157.816 13.039V22.8671H153.63V13.585C153.63 12.493 153.302 11.6194 152.647 10.9642C152.016 10.2847 151.191 9.94496 150.172 9.94496C149.153 9.94496 148.316 10.2847 147.66 10.9642C147.029 11.6194 146.714 12.493 146.714 13.585V22.8671H142.528V6.12292H145.622L146.35 7.76093C146.763 7.4212 147.211 7.11786 147.697 6.85092C148.109 6.63252 148.595 6.42625 149.153 6.23212C149.735 6.03798 150.378 5.94092 151.082 5.94092Z" fill="white"/>
<path d="M160.56 6.12256H164.928L169.114 17.0427L172.936 6.12256H177.305C176.115 9.18019 175.036 11.9466 174.065 14.4218C173.652 15.4896 173.24 16.5331 172.827 17.5523C172.439 18.5715 172.087 19.5058 171.772 20.3551C171.456 21.1802 171.189 21.8718 170.971 22.4299C170.752 22.9881 170.619 23.3157 170.57 23.4127C170.158 24.4077 169.745 25.2449 169.333 25.9243C168.945 26.6281 168.52 27.1984 168.059 27.6352C167.598 28.072 167.1 28.3874 166.566 28.5816C166.033 28.7757 165.426 28.8728 164.746 28.8728C164.552 28.8728 164.358 28.8606 164.164 28.8364C163.994 28.8364 163.849 28.8242 163.727 28.8C163.557 28.7757 163.412 28.7393 163.29 28.6908V25.2327C164.213 25.2327 164.916 25.0265 165.402 24.6139C165.911 24.2014 166.299 23.6797 166.566 23.0487L166.93 22.1387L160.56 6.12256Z" fill="white"/>
</g>
<defs>
<clipPath id="clip0_0_17848">
<rect width="177" height="29" fill="white" transform="translate(0.492188 0.53125)"/>
</clipPath>
</defs>
</svg>
