<svg width="179" height="32" viewBox="0 0 179 32" fill="none" xmlns="http://www.w3.org/2000/svg">
<g clip-path="url(#clip0_0_17873)">
<path d="M38.9917 13.4083C38.9917 11.5083 39.4159 9.8111 40.2645 8.31686C41.1315 6.80418 42.303 5.63278 43.7787 4.80265C45.273 3.95407 46.9425 3.52979 48.7872 3.52979C50.9455 3.52979 52.8364 4.08321 54.4597 5.19005C56.0831 6.29689 57.2176 7.82802 57.8633 9.78343H53.4083C52.9655 8.86107 52.3383 8.16929 51.5266 7.70811C50.7334 7.24693 49.811 7.01632 48.7595 7.01632C47.6342 7.01632 46.6289 7.28382 45.7434 7.81879C44.8764 8.33532 44.1938 9.07321 43.6957 10.0325C43.2161 10.9917 42.9763 12.117 42.9763 13.4083C42.9763 14.6812 43.2161 15.8065 43.6957 16.7842C44.1938 17.7435 44.8764 18.4906 45.7434 19.0256C46.6289 19.5421 47.6342 19.8003 48.7595 19.8003C49.811 19.8003 50.7334 19.5698 51.5266 19.1086C52.3383 18.6289 52.9655 17.9279 53.4083 17.0056H57.8633C57.2176 18.9794 56.0831 20.5198 54.4597 21.6266C52.8548 22.715 50.964 23.2592 48.7872 23.2592C46.9425 23.2592 45.273 22.8442 43.7787 22.014C42.303 21.1654 41.1315 19.994 40.2645 18.4998C39.4159 17.0056 38.9917 15.3084 38.9917 13.4083Z" fill="white"/>
<path d="M67.9792 23.3424C66.5034 23.3424 65.1752 23.0196 63.9946 22.3739C62.8139 21.7098 61.8823 20.7783 61.1998 19.5792C60.5357 18.3801 60.2036 16.9965 60.2036 15.4285C60.2036 13.8605 60.5449 12.4769 61.2275 11.2779C61.9285 10.0788 62.8785 9.15647 64.0776 8.51081C65.2767 7.8467 66.6141 7.51465 68.0899 7.51465C69.5657 7.51465 70.9031 7.8467 72.1022 8.51081C73.3013 9.15647 74.2421 10.0788 74.9246 11.2779C75.6256 12.4769 75.9761 13.8605 75.9761 15.4285C75.9761 16.9965 75.6164 18.3801 74.8969 19.5792C74.1959 20.7783 73.2367 21.7098 72.0192 22.3739C70.8201 23.0196 69.4734 23.3424 67.9792 23.3424ZM67.9792 19.9666C68.6802 19.9666 69.3351 19.8005 69.9438 19.4685C70.571 19.118 71.0691 18.6015 71.4381 17.9189C71.807 17.2364 71.9915 16.4062 71.9915 15.4285C71.9915 13.9712 71.6041 12.8551 70.8293 12.0803C70.073 11.2871 69.1414 10.8905 68.0345 10.8905C66.9277 10.8905 65.9961 11.2871 65.2398 12.0803C64.5019 12.8551 64.1329 13.9712 64.1329 15.4285C64.1329 16.8859 64.4926 18.0112 65.2121 18.8044C65.95 19.5792 66.8724 19.9666 67.9792 19.9666Z" fill="white"/>
<path d="M97.855 7.54199C99.7367 7.54199 101.25 8.12308 102.393 9.28527C103.555 10.429 104.137 12.0339 104.137 14.1V23.0931H100.263V14.6258C100.263 13.4267 99.958 12.5135 99.3493 11.8863C98.7405 11.2407 97.9104 10.9178 96.8589 10.9178C95.8074 10.9178 94.968 11.2407 94.3408 11.8863C93.7321 12.5135 93.4277 13.4267 93.4277 14.6258V23.0931H89.5537V14.6258C89.5537 13.4267 89.2494 12.5135 88.6406 11.8863C88.0318 11.2407 87.2017 10.9178 86.1502 10.9178C85.0803 10.9178 84.2317 11.2407 83.6045 11.8863C82.9957 12.5135 82.6913 13.4267 82.6913 14.6258V23.0931H78.8174V7.76336H82.6913V9.61732C83.1894 8.97166 83.8259 8.46436 84.6006 8.09541C85.3939 7.72647 86.2609 7.54199 87.2017 7.54199C88.4008 7.54199 89.4707 7.80026 90.4116 8.31678C91.3524 8.81486 92.081 9.53431 92.5976 10.4751C93.0956 9.58965 93.8151 8.87943 94.7559 8.34445C95.7152 7.80948 96.7482 7.54199 97.855 7.54199Z" fill="white"/>
<path d="M111.687 9.97737C112.185 9.27637 112.867 8.69528 113.734 8.2341C114.62 7.75447 115.625 7.51465 116.75 7.51465C118.06 7.51465 119.241 7.83748 120.292 8.48314C121.362 9.12879 122.202 10.0511 122.81 11.2502C123.438 12.4308 123.751 13.8052 123.751 15.3732C123.751 16.9412 123.438 18.334 122.81 19.5515C122.202 20.7506 121.362 21.6822 120.292 22.3463C119.241 23.0104 118.06 23.3424 116.75 23.3424C115.625 23.3424 114.629 23.1118 113.762 22.6507C112.913 22.1895 112.222 21.6084 111.687 20.9074V30.3985H107.813V7.76369H111.687V9.97737ZM119.794 15.3732C119.794 14.4508 119.601 13.6576 119.213 12.9935C118.844 12.3109 118.346 11.7944 117.719 11.4439C117.11 11.0934 116.446 10.9181 115.727 10.9181C115.026 10.9181 114.362 11.1026 113.734 11.4716C113.126 11.8221 112.627 12.3386 112.24 13.0211C111.871 13.7037 111.687 14.5062 111.687 15.4285C111.687 16.3509 111.871 17.1533 112.24 17.8359C112.627 18.5185 113.126 19.0442 113.734 19.4132C114.362 19.7636 115.026 19.9389 115.727 19.9389C116.446 19.9389 117.11 19.7544 117.719 19.3855C118.346 19.0165 118.844 18.4908 119.213 17.8082C119.601 17.1257 119.794 16.314 119.794 15.3732Z" fill="white"/>
<path d="M125.57 15.3732C125.57 13.8236 125.875 12.4493 126.483 11.2502C127.11 10.0511 127.95 9.12879 129.001 8.48314C130.071 7.83748 131.261 7.51465 132.571 7.51465C133.715 7.51465 134.711 7.74524 135.559 8.20643C136.426 8.66761 137.118 9.2487 137.635 9.9497V7.76369H141.536V23.0934H137.635V20.852C137.137 21.5715 136.445 22.171 135.559 22.6507C134.692 23.1118 133.687 23.3424 132.543 23.3424C131.252 23.3424 130.071 23.0104 129.001 22.3463C127.95 21.6822 127.11 20.7506 126.483 19.5515C125.875 18.334 125.57 16.9412 125.57 15.3732ZM137.635 15.4285C137.635 14.4877 137.45 13.6852 137.081 13.0211C136.712 12.3386 136.214 11.8221 135.587 11.4716C134.96 11.1026 134.287 10.9181 133.567 10.9181C132.848 10.9181 132.184 11.0934 131.575 11.4439C130.966 11.7944 130.468 12.3109 130.081 12.9935C129.712 13.6576 129.527 14.4508 129.527 15.3732C129.527 16.2955 129.712 17.1072 130.081 17.8082C130.468 18.4908 130.966 19.0165 131.575 19.3855C132.202 19.7544 132.866 19.9389 133.567 19.9389C134.287 19.9389 134.96 19.7636 135.587 19.4132C136.214 19.0442 136.712 18.5277 137.081 17.8636C137.45 17.181 137.635 16.3693 137.635 15.4285Z" fill="white"/>
<path d="M153.815 7.54199C155.641 7.54199 157.117 8.12308 158.242 9.28527C159.368 10.429 159.93 12.0339 159.93 14.1V23.0931H156.056V14.6258C156.056 13.4082 155.752 12.4766 155.143 11.831C154.534 11.1669 153.704 10.8348 152.653 10.8348C151.583 10.8348 150.734 11.1669 150.107 11.831C149.498 12.4766 149.194 13.4082 149.194 14.6258V23.0931H145.32V7.76336H149.194V9.67266C149.71 9.00856 150.365 8.49203 151.158 8.12308C151.97 7.73569 152.856 7.54199 153.815 7.54199Z" fill="white"/>
<path d="M178.28 7.76367L168.789 30.3432H164.666L167.986 22.706L161.843 7.76367H166.187L170.144 18.4723L174.157 7.76367H178.28Z" fill="white"/>
<path d="M3.59846 31.4241H0.836914V12.0859H11.1958V23.8268C11.1958 28.0221 7.79621 31.4241 3.59846 31.4241Z" fill="#0328EE"/>
<path d="M25.008 12.0858C25.008 5.41224 19.5982 0 12.9222 0C12.3359 0 11.7595 0.0443424 11.1953 0.125637V12.0858H25.008Z" fill="#0328EE"/>
<path d="M21.0949 24.826C23.7441 23.745 25.0154 20.7212 23.9345 18.072C22.8535 15.4228 19.8296 14.1515 17.1804 15.2324C14.5312 16.3134 13.2599 19.3373 14.3409 21.9865C15.4219 24.6357 18.4458 25.907 21.0949 24.826Z" fill="white"/>
</g>
<defs>
<clipPath id="clip0_0_17873">
<rect width="179" height="32" fill="white"/>
</clipPath>
</defs>
</svg>
