<svg width="175" height="30" viewBox="0 0 175 30" fill="none" xmlns="http://www.w3.org/2000/svg">
<g clip-path="url(#clip0_0_17834)">
<path d="M60.3029 15.896C59.0399 17.9449 57.2436 19.1237 54.9141 19.1237C51.5462 19.1237 49.0763 16.4012 49.0763 12.8929C49.0763 9.38458 51.4339 6.69021 54.9703 6.69021C57.2156 6.69021 59.2363 7.95319 60.2467 9.86171L63.5024 7.2796C61.8465 4.33263 58.8434 2.56445 55.0264 2.56445C48.9079 2.56445 44.6138 7.1112 44.6138 12.8929C44.6138 18.6746 48.9921 23.2494 54.9703 23.2494C58.7312 23.2494 61.8746 21.2567 63.5866 18.422L60.3029 15.896Z" fill="white"/>
<path d="M72.502 8.17773C68.0114 8.17773 64.7837 11.4335 64.7837 15.6996C64.7837 19.9376 68.0114 23.2494 72.502 23.2494C76.9926 23.2494 80.2202 19.9376 80.2202 15.6996C80.2202 11.4335 76.9926 8.17773 72.502 8.17773ZM72.502 11.9667C74.4386 11.9667 75.898 13.4543 75.898 15.6996C75.898 17.9449 74.4386 19.4605 72.502 19.4605C70.5654 19.4605 69.106 17.9449 69.106 15.6996C69.106 13.4543 70.5654 11.9667 72.502 11.9667Z" fill="white"/>
<path d="M83.0088 8.51452V22.9126H87.2749V15.4189C87.2749 13.5385 88.2572 11.9387 90.0534 11.9387C91.6252 11.9387 92.6355 12.921 92.6355 14.8014V22.9126H96.9016V15.4189C96.9016 13.5385 97.884 11.9387 99.6802 11.9387C101.252 11.9387 102.234 12.921 102.234 14.8014V22.9126H106.5V14.1559C106.5 10.423 104.395 8.17773 100.943 8.17773C98.5014 8.17773 97.1262 9.24425 96.0877 10.7037C95.1054 9.10392 93.5337 8.17773 91.3164 8.17773C89.436 8.17773 88.0327 8.90745 87.1065 10.3669V8.51452H83.0088Z" fill="white"/>
<path d="M117.693 11.9387C119.517 11.9387 121.033 13.4262 121.033 15.7557C121.033 18.001 119.517 19.4885 117.693 19.4885C115.785 19.4885 114.297 18.0291 114.297 15.7557C114.297 13.3981 115.785 11.9387 117.693 11.9387ZM114.101 8.51452H110.143V28.5259H114.409V21.3409C115.307 22.6881 117.02 23.2494 118.563 23.2494C122.492 23.2494 125.327 19.9937 125.327 15.6996C125.327 11.2651 122.268 8.17773 118.591 8.17773C117.188 8.17773 115.223 8.76712 114.101 10.5072V8.51452Z" fill="white"/>
<path d="M135.589 13.9594L131.66 14.7172C128.628 15.3628 126.973 16.8222 126.973 18.9553C126.973 21.4532 128.937 23.2494 131.744 23.2494C133.652 23.2494 135.056 22.4074 135.729 21.1444V22.9126H139.687V13.8472C139.687 10.3388 137.301 8.17773 133.287 8.17773C130.593 8.17773 128.432 9.30038 127.113 10.9002L129.33 13.5946C130.2 12.6123 131.435 11.8545 133.035 11.8545C134.494 11.8545 135.589 12.4158 135.589 13.8472V13.9594ZM132.698 20.0779C131.688 20.0779 131.042 19.5166 131.042 18.7027C131.042 17.9168 131.604 17.4116 132.754 17.2151L135.617 16.6538V17.0748C135.617 18.7869 134.466 20.0779 132.698 20.0779Z" fill="white"/>
<path d="M143.28 8.51452V22.9126H147.546V15.4189C147.546 13.5385 148.529 11.9387 150.381 11.9387C151.953 11.9387 152.963 12.921 152.963 14.8014V22.9126H157.229V14.1559C157.229 10.423 155.096 8.17773 151.644 8.17773C149.707 8.17773 148.304 8.90745 147.378 10.3669V8.51452H143.28Z" fill="white"/>
<path d="M164.195 22.3795L164.027 22.8566C163.409 24.9054 162.371 25.2703 161.248 25.2703C160.771 25.2703 160.041 25.2142 159.283 24.7932V28.3295C159.929 28.6383 160.855 28.8628 161.865 28.8628C164.588 28.8628 166.328 27.5717 167.759 24.0915L174.046 8.51465H169.696L166.328 17.945L162.988 8.51465H158.526L164.195 22.3795Z" fill="white"/>
<path d="M19.2098 0.614746H14.7308C14.263 0.614746 13.8838 0.993959 13.8838 1.46174V25.3089C13.8838 25.7767 14.263 26.1559 14.7308 26.1559H19.2098C19.6776 26.1559 20.0568 25.7767 20.0568 25.3089V1.46174C20.0568 0.993959 19.6776 0.614746 19.2098 0.614746Z" fill="white"/>
<path d="M28.339 26.1556C31.237 26.1556 33.5863 23.8063 33.5863 20.9084C33.5863 18.0104 31.237 15.6611 28.339 15.6611C25.4411 15.6611 23.0918 18.0104 23.0918 20.9084C23.0918 23.8063 25.4411 26.1556 28.339 26.1556Z" fill="#0328EE"/>
<path d="M28.339 11.1092C31.237 11.1092 33.5863 8.75997 33.5863 5.86199C33.5863 2.96402 31.237 0.614746 28.339 0.614746C25.4411 0.614746 23.0918 2.96402 23.0918 5.86199C23.0918 8.75997 25.4411 11.1092 28.339 11.1092Z" fill="#0328EE"/>
<path d="M5.60174 26.1556C8.49971 26.1556 10.849 23.8063 10.849 20.9084C10.849 18.0104 8.49971 15.6611 5.60174 15.6611C2.70376 15.6611 0.354492 18.0104 0.354492 20.9084C0.354492 23.8063 2.70376 26.1556 5.60174 26.1556Z" fill="#0328EE"/>
</g>
<defs>
<clipPath id="clip0_0_17834">
<rect width="175" height="29" fill="white" transform="translate(0 0.53125)"/>
</clipPath>
</defs>
</svg>
