<svg width="68" height="69" viewBox="0 0 68 69" fill="none" xmlns="http://www.w3.org/2000/svg">
<rect y="0.984375" width="68" height="68" rx="20" fill="#0328EE"/>
<g clip-path="url(#clip0_1_18162)">
<path opacity="0.4" d="M56.1314 34.7281C56.1314 47.0928 46.1084 57.1158 33.7437 57.1158C21.3789 57.1158 11.356 47.0928 11.356 34.7281C11.356 22.3656 21.3789 12.3403 33.7437 12.3403C46.1084 12.3403 56.1314 22.3656 56.1314 34.7281Z" fill="white"/>
<path d="M42.3849 27.3512L38.7581 38.8137C38.6238 39.2838 38.2432 39.6644 37.773 39.801L26.3553 43.3808C25.5941 43.6293 24.8553 42.8882 25.1016 42.1271L28.6836 30.6422C28.818 30.172 29.1985 29.8138 29.6687 29.6571L41.1312 26.0751C41.9148 25.8288 42.6312 26.5676 42.3849 27.3512Z" fill="white"/>
</g>
<defs>
<clipPath id="clip0_1_18162">
<rect width="46" height="46" fill="white" transform="translate(11 11.9844)"/>
</clipPath>
</defs>
</svg>
