<svg width="46" height="46" viewBox="0 0 46 46" fill="none" xmlns="http://www.w3.org/2000/svg">
<rect width="46" height="46" rx="13" fill="#0328EE"/>
<g clip-path="url(#clip0_0_9083)">
<path opacity="0.4" d="M31.6318 16.7878C35.1004 16.7878 37.9237 19.7028 37.9237 23.2855V30.4071C37.9237 33.9811 35.1075 36.8888 31.646 36.8888H15.9148C12.4448 36.8888 9.62012 33.9753 9.62012 30.3925V23.2709C9.62012 19.697 12.4377 16.7878 15.9007 16.7878H17.231H31.6318Z" fill="white"/>
<path d="M24.545 29.1578L28.6618 24.9577C29.0863 24.5236 29.0863 23.825 28.6589 23.3924C28.2316 22.9611 27.5424 22.9626 27.1178 23.3952L24.8634 25.6951V11.1068C24.8634 10.4959 24.3752 10 23.7723 10C23.1709 10 22.6841 10.4959 22.6841 11.1068V25.6951L20.4283 23.3952C20.0037 22.9626 19.3145 22.9611 18.8872 23.3924C18.6735 23.6094 18.5659 23.8926 18.5659 24.1772C18.5659 24.4589 18.6735 24.7421 18.8843 24.9577L23.0011 29.1578C23.2063 29.3663 23.4836 29.4841 23.7723 29.4841C24.0624 29.4841 24.3398 29.3663 24.545 29.1578Z" fill="white"/>
</g>
<defs>
<clipPath id="clip0_0_9083">
<rect width="29" height="27" fill="white" transform="translate(9 10)"/>
</clipPath>
</defs>
</svg>
