<svg width="46" height="46" viewBox="0 0 46 46" fill="none" xmlns="http://www.w3.org/2000/svg">
<rect width="46" height="46" rx="23" fill="white"/>
<g clip-path="url(#clip0_159_28980)">
<path d="M22.934 7L22.717 7.72455V28.7492L22.934 28.962L32.8677 23.1932L22.934 7Z" fill="#010725"/>
<path d="M22.9347 7L13.001 23.1932L22.9347 28.9621V18.7574V7Z" fill="#010725"/>
<path d="M22.9338 30.8098L22.8115 30.9563V38.4457L22.9338 38.7966L32.8734 25.0439L22.9338 30.8098Z" fill="#010725"/>
<path d="M22.9342 38.7966V30.8098L13.0005 25.0439L22.9342 38.7966Z" fill="#010725"/>
<path d="M22.9341 28.9624L32.8676 23.1937L22.9341 18.7578V28.9624Z" fill="#010D50"/>
<path d="M13.0005 23.1937L22.934 28.9624V18.7578L13.0005 23.1937Z" fill="#010D50"/>
</g>
<defs>
<clipPath id="clip0_159_28980">
<rect width="20" height="32" fill="white" transform="translate(13.0005 7)"/>
</clipPath>
</defs>
</svg>
