<svg width="46" height="46" viewBox="0 0 46 46" fill="none" xmlns="http://www.w3.org/2000/svg">
<rect width="46" height="46" rx="13" fill="#0328EE"/>
<g clip-path="url(#clip0_0_17951)">
<path d="M22.5917 41.1133C32.3073 41.1133 40.1834 33.2373 40.1834 23.5216C40.1834 13.806 32.3073 5.92993 22.5917 5.92993C12.8761 5.92993 5 13.806 5 23.5216C5 33.2373 12.8761 41.1133 22.5917 41.1133Z" fill="white" fill-opacity="0.4"/>
<path d="M26.0349 12.658C26.0349 12.2125 25.4963 11.9895 25.1814 12.3044L13.7111 23.7747C13.5907 23.8953 13.5087 24.0488 13.4755 24.216C13.4423 24.3831 13.4594 24.5564 13.5246 24.7138C13.5898 24.8713 13.7002 25.0059 13.8418 25.1006C13.9835 25.1954 14.15 25.246 14.3204 25.2462H18.6488C18.9249 25.2462 19.1488 25.4701 19.1488 25.7462V34.3856C19.1488 34.831 19.6873 35.0541 20.0023 34.7391L31.4726 23.2689C31.593 23.1483 31.675 22.9947 31.7082 22.8276C31.7414 22.6604 31.7243 22.4872 31.6591 22.3297C31.5939 22.1723 31.4835 22.0377 31.3419 21.9429C31.2002 21.8482 31.0337 21.7975 30.8633 21.7974H26.5349C26.2588 21.7974 26.0349 21.5735 26.0349 21.2974V12.658Z" fill="white"/>
</g>
<defs>
<clipPath id="clip0_0_17951">
<rect width="36" height="37" fill="white" transform="translate(5 5)"/>
</clipPath>
</defs>
</svg>
