<svg width="46" height="46" viewBox="0 0 46 46" fill="none" xmlns="http://www.w3.org/2000/svg">
<rect width="46" height="46" rx="13" fill="#0328EE"/>
<g clip-path="url(#clip0_0_17943)">
<path opacity="0.4" d="M29.8494 7H15.3486C10.0643 7 7.07031 9.99399 7.07031 15.2783V29.7654C7.07031 35.0497 10.0643 38.0437 15.3486 38.0437H29.8494C35.1338 38.0437 38.114 35.0497 38.114 29.7654V15.2783C38.114 9.99399 35.1338 7 29.8494 7Z" fill="white"/>
<path d="M31.9974 21.8948V27.5382H26.354" stroke="white" stroke-width="2.5" stroke-linecap="round" stroke-linejoin="round"/>
<path d="M31.9978 27.5381L25.3603 20.9006C25.2438 20.7841 25.1056 20.6916 24.9534 20.6285C24.8012 20.5655 24.638 20.533 24.4733 20.533C24.3085 20.533 24.1454 20.5655 23.9932 20.6285C23.8409 20.6916 23.7027 20.7841 23.5862 20.9006L20.971 23.5158C20.8545 23.6323 20.7163 23.7248 20.5641 23.7878C20.4119 23.8509 20.2487 23.8834 20.084 23.8834C19.9192 23.8834 19.7561 23.8509 19.6039 23.7878C19.4516 23.7248 19.3134 23.6323 19.1969 23.5158L13.1865 17.5054" stroke="white" stroke-width="2.5" stroke-linecap="round" stroke-linejoin="round"/>
</g>
<defs>
<clipPath id="clip0_0_17943">
<rect width="32" height="32" fill="white" transform="translate(7 7)"/>
</clipPath>
</defs>
</svg>
