<svg width="39" height="26" viewBox="0 0 39 26" fill="none" xmlns="http://www.w3.org/2000/svg">
<rect width="39" height="26" rx="13" fill="#010D50"/>
<path d="M9.04585 16.5V8.1H10.3178V15.492H14.1338V16.5H9.04585ZM16.6998 16.5V9.132H14.2158V8.1H20.4438V9.132H17.9718V16.5H16.6998ZM25.6031 16.644C24.7711 16.644 24.0511 16.464 23.4431 16.104C22.8431 15.736 22.3791 15.228 22.0511 14.58C21.7231 13.924 21.5591 13.168 21.5591 12.312C21.5591 11.448 21.7231 10.692 22.0511 10.044C22.3791 9.388 22.8431 8.876 23.4431 8.508C24.0511 8.14 24.7711 7.956 25.6031 7.956C26.5871 7.956 27.3911 8.196 28.0151 8.676C28.6391 9.156 29.0351 9.828 29.2031 10.692H27.7871C27.6751 10.204 27.4351 9.816 27.0671 9.528C26.6991 9.24 26.2071 9.096 25.5911 9.096C24.7511 9.096 24.0871 9.384 23.5991 9.96C23.1111 10.528 22.8671 11.312 22.8671 12.312C22.8671 13.304 23.1111 14.084 23.5991 14.652C24.0871 15.22 24.7511 15.504 25.5911 15.504C26.2071 15.504 26.6991 15.368 27.0671 15.096C27.4351 14.824 27.6751 14.452 27.7871 13.98H29.2031C29.0351 14.812 28.6391 15.464 28.0151 15.936C27.3911 16.408 26.5871 16.644 25.6031 16.644Z" fill="white"/>
</svg>
