<svg width="46" height="46" viewBox="0 0 46 46" fill="none" xmlns="http://www.w3.org/2000/svg">
<rect width="46" height="46" rx="13" fill="#0328EE"/>
<g clip-path="url(#clip0_0_17985)">
<path d="M23.2422 7.88916C14.3206 7.88916 7.85596 15.1677 7.85596 23.2447C7.85596 25.8244 8.60838 28.4809 9.92895 30.9071C10.1746 31.3063 10.2053 31.813 10.0364 32.2891L9.00762 35.7287C8.77729 36.5579 9.48364 37.1721 10.2668 36.9264L13.3686 36.0051C14.2131 35.7287 14.8734 36.0819 15.6581 36.5579C17.9 37.8785 20.6932 38.5541 23.2115 38.5541C30.8278 38.5541 38.567 32.6729 38.567 23.1986C38.567 15.0295 31.9641 7.88916 23.2422 7.88916Z" fill="white"/>
<path fill-rule="evenodd" clip-rule="evenodd" d="M16.1022 25.2256C15.0273 25.2256 14.1367 24.335 14.1367 23.2601C14.1367 22.1699 15.012 21.2946 16.1022 21.2946C17.1924 21.2946 18.0677 22.1699 18.0677 23.2601C18.0677 24.335 17.1924 25.2102 16.1022 25.2256ZM23.1816 25.2258C22.0914 25.2105 21.2161 24.3352 21.2161 23.245C21.2161 22.1701 22.1067 21.2795 23.1816 21.2948C24.2719 21.2948 25.1471 22.1701 25.1471 23.2603C25.1471 24.3352 24.2719 25.2258 23.1816 25.2258ZM28.2948 23.2605C28.2948 24.3354 29.17 25.226 30.2603 25.226C31.3505 25.226 32.2258 24.3354 32.2258 23.2605C32.2258 22.1703 31.3505 21.295 30.2603 21.295C29.17 21.295 28.2948 22.1703 28.2948 23.2605Z" fill="#0328EE"/>
</g>
<defs>
<clipPath id="clip0_0_17985">
<rect width="32" height="32" fill="white" transform="translate(7 7)"/>
</clipPath>
</defs>
</svg>
