<svg width="46" height="46" viewBox="0 0 46 46" fill="none" xmlns="http://www.w3.org/2000/svg">
<rect width="46" height="46" rx="13" fill="#0328EE"/>
<g clip-path="url(#clip0_0_17969)">
<path d="M23.3519 39.4428C23.151 39.4428 22.9501 39.3967 22.7689 39.3029L16.9274 36.279C15.2698 35.4201 13.9731 34.4561 12.9606 33.3331C10.7446 30.8772 9.51159 27.7245 9.49199 24.4541L9.4234 13.6901C9.41524 12.4478 10.2171 11.3328 11.4157 10.9128L22.1418 7.17323C22.7787 6.94576 23.4891 6.94258 24.1374 7.16209L34.9042 10.7745C36.1094 11.1769 36.9243 12.284 36.9308 13.5247L36.9994 24.2966C37.0207 27.5622 35.8302 30.7276 33.6484 33.2107C32.6473 34.3496 31.3621 35.3278 29.7208 36.2027L23.9316 39.2949C23.752 39.3919 23.5527 39.4412 23.3519 39.4428Z" fill="white"/>
<path d="M22.107 26.9863C21.7934 26.9879 21.4799 26.8749 21.2382 26.6427L18.1288 23.6523C17.6487 23.1878 17.6438 22.4338 18.119 21.9662C18.5942 21.4969 19.37 21.4922 19.8517 21.955L22.089 24.1056L27.5516 18.7196C28.0285 18.2504 28.8042 18.2456 29.2843 18.7085C29.7661 19.173 29.771 19.9285 29.2958 20.3946L22.9709 26.6316C22.7324 26.867 22.4205 26.9847 22.107 26.9863Z" fill="#0328EE"/>
</g>
<defs>
<clipPath id="clip0_0_17969">
<rect width="28" height="33" fill="white" transform="translate(9 7)"/>
</clipPath>
</defs>
</svg>
