<svg width="46" height="46" viewBox="0 0 46 46" fill="none" xmlns="http://www.w3.org/2000/svg">
<rect width="46" height="46" rx="13" fill="#0328EE"/>
<g clip-path="url(#clip0_0_9097)">
<path d="M35.5435 15.6541H12.395C10.1859 15.6541 8.39502 17.4449 8.39502 19.6541V30.7252C8.39502 32.9343 10.1859 34.7252 12.395 34.7252H35.5435C37.7527 34.7252 39.5435 32.9343 39.5435 30.7252V19.6541C39.5435 17.4449 37.7527 15.6541 35.5435 15.6541Z" fill="white" fill-opacity="0.4"/>
<path d="M32.3587 12.1638H10C7.79086 12.1638 6 13.9547 6 16.1638V27.2349C6 29.4441 7.79086 31.2349 10 31.2349H32.3587C34.5678 31.2349 36.3587 29.4441 36.3587 27.2349V16.1638C36.3587 13.9547 34.5678 12.1638 32.3587 12.1638Z" fill="white"/>
<path d="M21.1794 25.7448C23.4137 25.7448 25.225 23.9335 25.225 21.6992C25.225 19.4648 23.4137 17.6536 21.1794 17.6536C18.9451 17.6536 17.1338 19.4648 17.1338 21.6992C17.1338 23.9335 18.9451 25.7448 21.1794 25.7448Z" fill="#0328EE"/>
<path d="M12.0644 20.2926C13.2046 20.2926 14.1288 19.3684 14.1288 18.2282C14.1288 17.0881 13.2046 16.1638 12.0644 16.1638C10.9243 16.1638 10 17.0881 10 18.2282C10 19.3684 10.9243 20.2926 12.0644 20.2926Z" fill="#0328EE"/>
<path d="M30.2944 27.235C31.4345 27.235 32.3588 26.3107 32.3588 25.1706C32.3588 24.0305 31.4345 23.1062 30.2944 23.1062C29.1542 23.1062 28.23 24.0305 28.23 25.1706C28.23 26.3107 29.1542 27.235 30.2944 27.235Z" fill="#0328EE"/>
</g>
<defs>
<clipPath id="clip0_0_9097">
<rect width="34" height="23" fill="white" transform="translate(6 12)"/>
</clipPath>
</defs>
</svg>
