<svg width="68" height="68" viewBox="0 0 68 68" fill="none" xmlns="http://www.w3.org/2000/svg">
<rect width="68" height="68" rx="20" fill="#0328EE"/>
<g opacity="0.84992" clip-path="url(#clip0_0_17906)">
<path opacity="0.4" d="M43.7179 13H24.3711C17.3207 13 13.3262 16.9946 13.3262 24.0448V43.3733C13.3262 50.4237 17.3207 54.4183 24.3711 54.4183H43.7179C50.7683 54.4183 54.7444 50.4237 54.7444 43.3733V24.0448C54.7444 16.9946 50.7683 13 43.7179 13Z" fill="white"/>
<path d="M24.4439 28.2605C23.5051 28.2605 22.7319 29.0336 22.7319 29.9908V44.2203C22.7319 45.1591 23.5051 45.9322 24.4439 45.9322C25.4011 45.9322 26.1743 45.1591 26.1743 44.2203V29.9908C26.1743 29.0336 25.4011 28.2605 24.4439 28.2605Z" fill="white"/>
<path d="M34.1084 21.4678C33.1696 21.4678 32.3965 22.2409 32.3965 23.1982V44.2201C32.3965 45.159 33.1696 45.9322 34.1084 45.9322C35.0656 45.9322 35.8387 45.159 35.8387 44.2201V23.1982C35.8387 22.2409 35.0656 21.4678 34.1084 21.4678Z" fill="white"/>
<path d="M43.644 35.771C42.6868 35.771 41.9136 36.5442 41.9136 37.5014V44.2203C41.9136 45.1592 42.6868 45.9323 43.6255 45.9323C44.5827 45.9323 45.3559 45.1592 45.3559 44.2203V37.5014C45.3559 36.5442 44.5827 35.771 43.644 35.771Z" fill="white"/>
</g>
<defs>
<clipPath id="clip0_0_17906">
<rect width="42" height="42" fill="white" transform="translate(13 13)"/>
</clipPath>
</defs>
</svg>
