<svg width="40" height="26" viewBox="0 0 40 26" fill="none" xmlns="http://www.w3.org/2000/svg">
<rect width="40" height="26" rx="13" fill="#010D50"/>
<path d="M10.9592 16.5V9.132H8.47516V8.1H14.7032V9.132H12.2312V16.5H10.9592ZM16.4935 16.5V8.1H19.3855C20.0495 8.1 20.5935 8.212 21.0175 8.436C21.4495 8.66 21.7695 8.964 21.9775 9.348C22.1855 9.724 22.2895 10.144 22.2895 10.608C22.2895 11.128 22.1495 11.6 21.8695 12.024C21.5975 12.448 21.1695 12.752 20.5855 12.936L22.3735 16.5H20.8975L19.2655 13.116H17.7655V16.5H16.4935ZM17.7655 12.156H19.3135C19.8895 12.156 20.3095 12.016 20.5735 11.736C20.8455 11.456 20.9815 11.092 20.9815 10.644C20.9815 10.196 20.8495 9.84 20.5855 9.576C20.3215 9.304 19.8935 9.168 19.3015 9.168H17.7655V12.156ZM23.9743 16.5L26.5663 12.252L23.9503 8.1H25.4023L27.3823 11.244L29.2303 8.1H30.6583L28.0543 12.312L30.6943 16.5H29.2423L27.2503 13.332L25.4023 16.5H23.9743Z" fill="white"/>
</svg>
