<svg width="68" height="69" viewBox="0 0 68 69" fill="none" xmlns="http://www.w3.org/2000/svg">
<rect y="0.984375" width="68" height="68" rx="20" fill="#0328EE"/>
<g clip-path="url(#clip0_1_18151)">
<path d="M59.4875 34.7281C59.4875 48.9574 47.973 60.4719 33.7437 60.4719C19.5145 60.4719 8 48.9574 8 34.7281C8 20.4989 19.5145 8.98438 33.7437 8.98438C36.7862 8.98438 39.735 9.49925 42.4498 10.4822C52.3728 14.0395 59.4875 23.5413 59.4875 34.7281Z" fill="white" fill-opacity="0.4"/>
<path d="M58.9726 29.5327C57.1472 20.6863 50.7815 13.478 42.4498 10.4824C42.403 10.4824 42.3562 10.4355 42.3562 10.4355L42.4498 15.3971C42.4498 16.6608 41.7009 17.831 40.5308 18.3459C37.9564 19.4693 35.382 18.8608 34.3055 21.8096C33.4161 24.0095 35.7565 30.0476 38.6117 30.0476C42.2158 30.0476 43.9477 22.7926 45.0242 22.7926C45.7263 22.7926 46.8029 24.9925 48.0667 26.6307C48.9092 27.7541 50.2198 28.3626 51.624 28.3626H54.0111L58.9726 29.5327Z" fill="white"/>
<path d="M38.3308 40.3448C37.0202 42.1702 43.9008 47.7402 46.1943 46.6637C50.0793 44.8382 52.6068 41.0469 52.6068 39.6427C52.6068 38.2384 50.7814 35.5237 44.5561 39.7363C42.8242 41 39.6882 38.4725 38.3308 40.3448Z" fill="white"/>
<path d="M27.8929 35.243C29.2503 33.8856 29.6715 31.7793 28.9694 30.5623C26.7227 26.4901 21.3867 28.6433 20.8719 32.9027C20.591 35.4771 19.0464 38.0982 17.7358 39.4556C16.4252 40.7662 13.8508 40.0641 13.1487 38.145C12.353 35.9919 15.1146 35.1962 14.6934 32.4346C14.5998 31.6857 13.804 31.3112 12.8211 31.1708L8.18723 31.3581C8.09361 32.4346 8 33.558 8 34.7281C8 47.0383 16.6125 57.3358 28.1737 59.8634V55.2763C28.1737 55.2763 28.1737 55.2763 27.0036 54.1062C25.8334 52.936 28.2205 50.9701 28.8758 48.4893C30.7013 41.4683 24.6164 41.1875 24.4292 39.6429C24.242 37.911 26.5355 36.6004 27.8929 35.243Z" fill="white"/>
</g>
<defs>
<clipPath id="clip0_1_18151">
<rect width="52" height="52" fill="white" transform="translate(8 8.98438)"/>
</clipPath>
</defs>
</svg>
